<?xml version="1.0" encoding="iso-8859-1"?>
<svg id="Layer_1" xmlns="http://www.w3.org/2000/svg" x="0px" y="0px"
     viewBox="0 0 503.607 503.607">
  <g transform="translate(1 1)">
    <path style="fill:#FFDD09;" d="M225.623,431.42h268.59V263.552h-268.59V431.42z"/>
    <path style="fill:#FD9808;" d="M494.213,431.42V263.552h-25.18V431.42"/>
    <g>
      <path style="fill:#FFDD09;" d="M385.098,137.65H166.869c-5.036,0-8.393-3.357-8.393-8.393c0-5.036,3.357-8.393,8.393-8.393
			h218.229c5.036,0,8.393,3.357,8.393,8.393C393.492,134.293,390.134,137.65,385.098,137.65z"/>
      <path style="fill:#FFDD09;" d="M166.869,140.168v-17.626c0-25.18-18.466-48.682-43.646-52.039
			c-30.216-3.357-57.075,20.144-57.075,50.361v19.305c0,25.18-11.751,49.521-33.574,62.951c0,0-0.839,0-0.839,0.839
			c-15.108,9.233-25.18,25.18-25.18,42.807V431.42h218.229V246.765c0-17.626-10.072-33.574-25.18-42.807c0,0-0.839,0-0.839-0.839
			C178.62,189.689,166.869,165.348,166.869,140.168"/>
    </g>
    <path style="fill:#FFFFFF;" d="M32.574,431.42V246.765c0-17.626,10.072-33.574,25.18-42.807c0,0,0.839,0,0.839-0.839
		c20.984-13.43,33.574-37.77,33.574-62.951v-19.305c0-23.502,15.948-42.807,37.77-48.682c-1.679-0.839-3.357-0.839-5.875-1.679
		c-31.056-3.357-57.915,20.144-57.915,50.361v19.305c0,25.18-11.751,49.521-33.574,62.951c0,0-0.839,0-0.839,0.839
		c-15.108,9.233-25.18,25.18-25.18,42.807V431.42"/>
    <path style="fill:#FCC309;" d="M469.872,203.958C469.033,203.119,469.033,203.119,469.872,203.958
		c-21.823-14.269-33.574-38.61-33.574-63.79v-17.626c0-25.18-18.466-48.682-43.646-52.039
		c-31.056-3.357-57.915,20.144-57.915,50.361v19.305c0,25.18-11.751,49.521-33.574,62.951c0,0-0.839,0-0.839,0.839
		c-15.108,9.233-25.18,25.18-25.18,42.807v16.787h218.229v-16.787C494.213,229.139,484.98,213.191,469.872,203.958"/>
    <path style="fill:#FD9808;" d="M469.872,203.958C469.033,203.119,469.033,203.119,469.872,203.958
		c-21.823-14.269-33.574-38.61-33.574-63.79v-17.626c0-25.18-18.466-48.682-43.646-52.039c-6.715-0.839-13.429,0-19.305,1.679
		c22.662,5.875,37.771,26.859,37.771,50.361v17.626c0,25.18,11.751,49.521,33.574,62.951c0,0,0.839,0,0.839,0.839
		c15.108,9.233,25.18,25.18,25.18,42.807v16.787h25.18v-16.787C494.213,229.139,484.98,213.191,469.872,203.958"/>
    <path d="M234.016,439.814H-1V246.765c0-20.144,10.911-39.449,28.538-50.361c19.305-11.751,30.216-33.574,30.216-56.236v-19.305
		c0-16.787,7.554-32.734,20.144-44.485c12.59-10.911,29.377-15.948,46.164-14.269c29.377,4.197,51.2,30.216,51.2,60.433v17.626
		c0,23.502,10.911,44.485,29.377,56.236s29.377,30.216,29.377,50.361V439.814z M15.787,423.027h201.443V246.765
		c0-14.269-7.554-27.698-20.984-36.092l-0.839-0.839c-22.662-14.269-36.931-41.128-36.931-70.505v-16.787
		c0-21.823-15.948-41.128-36.092-43.646c-12.59-1.679-24.341,1.679-33.574,10.072s-14.269,20.144-14.269,31.895v19.305
		c0,28.538-14.269,55.397-36.931,70.505l-0.839,0.839c-13.43,7.554-20.984,20.984-20.984,35.252V423.027z"/>
    <path d="M385.098,129.257H166.869c-5.036,0-8.393-3.357-8.393-8.393s3.357-8.393,8.393-8.393h218.229
		c5.036,0,8.393,3.357,8.393,8.393S390.134,129.257,385.098,129.257z"/>
    <path d="M502.607,439.814H217.229V255.158h285.377V439.814z M234.016,423.027H485.82V271.945H234.016V423.027z"/>
    <path d="M473.229,196.404c-18.466-11.751-29.377-32.734-29.377-56.236v-17.626c0-30.216-21.823-56.236-50.361-59.593
		c-16.787-2.518-34.413,2.518-47.003,13.43c-12.59,11.751-20.144,27.698-20.144,44.485v19.305c0,22.662-11.751,44.485-30.216,56.236
		c-17.626,10.911-28.538,30.216-28.538,50.361v25.18h235.016v-25.18C502.607,226.62,490.856,207.316,473.229,196.404z
		 M485.82,255.158H284.377v-7.554c0-14.269,7.554-27.698,20.984-36.092l0.839-0.839c22.662-15.108,36.931-41.967,36.931-70.505
		v-19.305c0-11.751,5.036-23.502,14.269-31.895c9.233-8.393,20.984-11.751,33.574-10.072c20.144,2.518,36.092,21.823,36.092,43.646
		v17.626c0,28.538,14.269,55.397,37.77,70.505c13.43,8.393,20.984,21.823,20.984,36.092V255.158z"/>
    <path d="M292.77,305.519h-67.148c-5.036,0-8.393-3.357-8.393-8.393s3.357-8.393,8.393-8.393h67.148
		c5.036,0,8.393,3.357,8.393,8.393S297.807,305.519,292.77,305.519z"/>
    <path d="M393.492,339.093h-25.18c-5.036,0-8.393-3.357-8.393-8.393c0-5.036,3.357-8.393,8.393-8.393h25.18
		c5.036,0,8.393,3.357,8.393,8.393C401.885,335.735,398.528,339.093,393.492,339.093z"/>
    <path d="M494.213,339.093h-67.148c-5.036,0-8.393-3.357-8.393-8.393c0-5.036,3.357-8.393,8.393-8.393h67.148
		c5.036,0,8.393,3.357,8.393,8.393C502.607,335.735,499.249,339.093,494.213,339.093z"/>
    <path d="M494.213,305.519h-58.754c-5.036,0-8.393-3.357-8.393-8.393s3.357-8.393,8.393-8.393h58.754
		c5.036,0,8.393,3.357,8.393,8.393S499.249,305.519,494.213,305.519z"/>
    <path d="M401.885,305.519h-75.541c-5.036,0-8.393-3.357-8.393-8.393s3.357-8.393,8.393-8.393h75.541
		c5.036,0,8.393,3.357,8.393,8.393S406.921,305.519,401.885,305.519z"/>
    <path d="M292.77,406.24h-67.148c-5.036,0-8.393-3.357-8.393-8.393s3.357-8.393,8.393-8.393h67.148c5.036,0,8.393,3.357,8.393,8.393
		S297.807,406.24,292.77,406.24z"/>
    <path d="M494.213,406.24h-58.754c-5.036,0-8.393-3.357-8.393-8.393s3.357-8.393,8.393-8.393h58.754
		c5.036,0,8.393,3.357,8.393,8.393S499.249,406.24,494.213,406.24z"/>
    <path d="M401.885,406.24h-75.541c-5.036,0-8.393-3.357-8.393-8.393s3.357-8.393,8.393-8.393h75.541
		c5.036,0,8.393,3.357,8.393,8.393S406.921,406.24,401.885,406.24z"/>
    <path d="M334.738,339.093H225.623c-5.036,0-8.393-3.357-8.393-8.393c0-5.036,3.357-8.393,8.393-8.393h109.115
		c5.036,0,8.393,3.357,8.393,8.393C343.131,335.735,339.774,339.093,334.738,339.093z"/>
    <path d="M343.131,372.666h-25.18c-5.036,0-8.393-3.357-8.393-8.393c0-5.036,3.357-8.393,8.393-8.393h25.18
		c5.036,0,8.393,3.357,8.393,8.393C351.525,369.309,348.167,372.666,343.131,372.666z"/>
    <path d="M284.377,372.666h-58.754c-5.036,0-8.393-3.357-8.393-8.393c0-5.036,3.357-8.393,8.393-8.393h58.754
		c5.036,0,8.393,3.357,8.393,8.393C292.77,369.309,289.413,372.666,284.377,372.666z"/>
    <path d="M494.213,372.666H376.705c-5.036,0-8.393-3.357-8.393-8.393c0-5.036,3.357-8.393,8.393-8.393h117.508
		c5.036,0,8.393,3.357,8.393,8.393C502.607,369.309,499.249,372.666,494.213,372.666z"/>
  </g>
</svg>
